<mxfile host="app.diagrams.net" modified="2023-03-30T14:12:01.067Z" agent="Mozilla/5.0 (Windows NT 10.0; Win64; x64) AppleWebKit/537.36 (KHTML, like Gecko) Chrome/111.0.0.0 Safari/537.36" etag="myDDEgi4RlfOAJK3bx6N" version="21.1.2" type="device">
  <diagram name="PÃ¡gina-1" id="xngk5yt8Od9m6TyXnnqF">
    <mxGraphModel dx="1134" dy="671" grid="1" gridSize="10" guides="1" tooltips="1" connect="1" arrows="1" fold="1" page="1" pageScale="1" pageWidth="827" pageHeight="1169" math="0" shadow="0">
      <root>
        <mxCell id="0" />
        <mxCell id="1" parent="0" />
        <mxCell id="KwgllaLWkfczSSwvtZiD-7" style="edgeStyle=orthogonalEdgeStyle;rounded=0;orthogonalLoop=1;jettySize=auto;html=1;" edge="1" parent="1" source="KwgllaLWkfczSSwvtZiD-1" target="KwgllaLWkfczSSwvtZiD-3">
          <mxGeometry relative="1" as="geometry" />
        </mxCell>
        <mxCell id="KwgllaLWkfczSSwvtZiD-1" value="Entrada" style="ellipse;whiteSpace=wrap;html=1;fontSize=20;fillColor=#dae8fc;strokeColor=#6c8ebf;" vertex="1" parent="1">
          <mxGeometry x="360" y="160" width="120" height="80" as="geometry" />
        </mxCell>
        <mxCell id="KwgllaLWkfczSSwvtZiD-2" value="Saida" style="ellipse;whiteSpace=wrap;html=1;fontSize=20;fillColor=#f8cecc;strokeColor=#b85450;" vertex="1" parent="1">
          <mxGeometry x="360" y="670" width="120" height="80" as="geometry" />
        </mxCell>
        <mxCell id="KwgllaLWkfczSSwvtZiD-8" style="edgeStyle=orthogonalEdgeStyle;rounded=0;orthogonalLoop=1;jettySize=auto;html=1;" edge="1" parent="1" source="KwgllaLWkfczSSwvtZiD-3" target="KwgllaLWkfczSSwvtZiD-5">
          <mxGeometry relative="1" as="geometry" />
        </mxCell>
        <mxCell id="KwgllaLWkfczSSwvtZiD-3" value="H, min" style="shape=parallelogram;perimeter=parallelogramPerimeter;whiteSpace=wrap;html=1;fixedSize=1;fontSize=20;fillColor=#fff2cc;strokeColor=#d6b656;" vertex="1" parent="1">
          <mxGeometry x="360" y="270" width="120" height="60" as="geometry" />
        </mxCell>
        <mxCell id="KwgllaLWkfczSSwvtZiD-11" style="edgeStyle=orthogonalEdgeStyle;rounded=0;orthogonalLoop=1;jettySize=auto;html=1;" edge="1" parent="1" source="KwgllaLWkfczSSwvtZiD-4" target="KwgllaLWkfczSSwvtZiD-2">
          <mxGeometry relative="1" as="geometry" />
        </mxCell>
        <mxCell id="KwgllaLWkfczSSwvtZiD-4" value="ResulFim" style="shape=document;whiteSpace=wrap;html=1;boundedLbl=1;fontSize=20;fillColor=#e1d5e7;strokeColor=#9673a6;" vertex="1" parent="1">
          <mxGeometry x="360" y="570" width="120" height="80" as="geometry" />
        </mxCell>
        <mxCell id="KwgllaLWkfczSSwvtZiD-9" style="edgeStyle=orthogonalEdgeStyle;rounded=0;orthogonalLoop=1;jettySize=auto;html=1;" edge="1" parent="1" source="KwgllaLWkfczSSwvtZiD-5" target="KwgllaLWkfczSSwvtZiD-6">
          <mxGeometry relative="1" as="geometry" />
        </mxCell>
        <mxCell id="KwgllaLWkfczSSwvtZiD-5" value="ResulMin=min/60" style="rounded=0;whiteSpace=wrap;html=1;fontSize=20;fillColor=#d5e8d4;strokeColor=#82b366;" vertex="1" parent="1">
          <mxGeometry x="337.5" y="360" width="165" height="80" as="geometry" />
        </mxCell>
        <mxCell id="KwgllaLWkfczSSwvtZiD-10" style="edgeStyle=orthogonalEdgeStyle;rounded=0;orthogonalLoop=1;jettySize=auto;html=1;" edge="1" parent="1" source="KwgllaLWkfczSSwvtZiD-6" target="KwgllaLWkfczSSwvtZiD-4">
          <mxGeometry relative="1" as="geometry" />
        </mxCell>
        <mxCell id="KwgllaLWkfczSSwvtZiD-6" value="ResulFim=H+ResulMin" style="rounded=0;whiteSpace=wrap;html=1;fontSize=20;fillColor=#d5e8d4;strokeColor=#82b366;" vertex="1" parent="1">
          <mxGeometry x="315" y="460" width="210" height="80" as="geometry" />
        </mxCell>
      </root>
    </mxGraphModel>
  </diagram>
</mxfile>
